# xmcd
# 
# Track frame offsets:
#     150
#     19667
#     37952
#     54185
#     71203
#     96287
#     112676
#     133811
#     150049
#     167084
#     183606
#     197189
#     213472
#     236613
#     252741
#     271189
#     290119
#     307896
#     322036
#     339195
# 
# Disc length: 4759
# 
# Revision: 2
# Processed by: cddbd v1.5.2PL0 Copyright (c) Steve Scherf et al.
# Submitted via: fre:ac v1.0.31
# 
DISCID=1e129514
DTITLE=Various Artist - Bild - 20 Jahre - Wir sind Deutschland - CD1
DYEAR=2009
DGENRE=Pop
TTITLE0=Rosenstolz - Willkommen
TTITLE1=Xavier Naidoo - Dieser Weg
TTITLE2=Nena - Leuchtturm
TTITLE3=Ich and Ich - Vom selben Stern
TTITLE4=Scorpions - Wind Of Change
TTITLE5=Die Prinzen - Deutschland
TTITLE6=Pur - Abenteuerland
TTITLE7=Matthias Reim - Verdammt, ich lieb' Dich
TTITLE8=Yvonne Catterfeld - Für Dich
TTITLE9=Laith Al-Deen - Alles an Dir
TTITLE10=Texas Lightning - No No Never
TTITLE11=Sasha - This Is My Time
TTITLE12=Echt - Junimond
TTITLE13=Oli.P and Tina Frank - Flugzeuge im Bauch
TTITLE14=Söhne Mannheims - Und wenn ein Lied
TTITLE15=Witt/Heppner - Die Flut
TTITLE16=Tokio Hotel - Durch den Monsun
TTITLE17=Niemann - Im Osten
TTITLE18=Karat - Über sieben Brücken musst du gehn
TTITLE19=City - Am Fenster
EXTD=
EXTT0=
EXTT1=
EXTT2=
EXTT3=
EXTT4=
EXTT5=
EXTT6=
EXTT7=
EXTT8=
EXTT9=
EXTT10=
EXTT11=
EXTT12=
EXTT13=
EXTT14=
EXTT15=
EXTT16=
EXTT17=
EXTT18=
EXTT19=
PLAYORDER=
